<svg xmlns="http://www.w3.org/2000/svg" viewBox="0 0 380 240" fill="none">
  <!-- Laptop base -->
  <rect x="40" y="140" width="300" height="20" rx="4" fill="#252525"/>
  <rect x="30" y="160" width="320" height="80" rx="8" fill="#1a1a1a" stroke="#333" stroke-width="1"/>
  <!-- Screen -->
  <rect x="20" y="0" width="340" height="200" rx="6" fill="#1a1a1a" stroke="#333" stroke-width="2"/>
  <rect x="32" y="12" width="316" height="176" rx="4" fill="#0f1419"/>
  <!-- Code -->
  <rect x="48" y="28" width="90" height="6" rx="1" fill="rgba(13,92,92,0.5)"/>
  <rect x="48" y="42" width="140" height="6" rx="1" fill="rgba(255,255,255,0.12)"/>
  <rect x="56" y="56" width="100" height="6" rx="1" fill="rgba(255,255,255,0.08)"/>
  <rect x="48" y="72" width="120" height="6" rx="1" fill="rgba(255,255,255,0.1)"/>
  <rect x="56" y="88" width="80" height="6" rx="1" fill="rgba(255,255,255,0.06)"/>
  <rect x="48" y="108" width="200" height="6" rx="1" fill="rgba(13,92,92,0.3)"/>
  <rect x="48" y="124" width="180" height="6" rx="1" fill="rgba(255,255,255,0.07)"/>
  <rect x="48" y="148" width="260" height="2" fill="rgba(255,255,255,0.04)"/>
  <rect x="48" y="158" width="100" height="6" rx="1" fill="rgba(255,255,255,0.1)"/>
</svg>
