<svg xmlns="http://www.w3.org/2000/svg" viewBox="0 0 600 700" fill="none">
  <defs>
    <linearGradient id="heroGridGrad" x1="0%" y1="0%" x2="100%" y2="100%">
      <stop offset="0%" style="stop-color:#1a1a1a"/>
      <stop offset="100%" style="stop-color:#0d0d0d"/>
    </linearGradient>
    <pattern id="grid" width="40" height="40" patternUnits="userSpaceOnUse">
      <path d="M 40 0 L 0 0 0 40" fill="none" stroke="rgba(255,255,255,0.06)" stroke-width="0.5"/>
    </pattern>
    <linearGradient id="nodeGlow" x1="0%" y1="0%" x2="0%" y2="100%">
      <stop offset="0%" style="stop-color:#0d5c5c;stop-opacity:0.4"/>
      <stop offset="100%" style="stop-color:#0d5c5c;stop-opacity:0"/>
    </linearGradient>
  </defs>
  <rect width="600" height="700" fill="url(#heroGridGrad)"/>
  <rect width="600" height="700" fill="url(#grid)"/>
  <!-- Data flow lines -->
  <path d="M 80 120 Q 200 80 320 140 T 520 200" fill="none" stroke="rgba(255,255,255,0.04)" stroke-width="1" stroke-dasharray="4 4"/>
  <path d="M 100 280 L 500 280" fill="none" stroke="rgba(255,255,255,0.03)" stroke-width="0.5"/>
  <path d="M 150 380 L 450 520" fill="none" stroke="rgba(255,255,255,0.04)" stroke-width="0.5"/>
  <path d="M 80 480 L 520 400" fill="none" stroke="rgba(255,255,255,0.03)" stroke-width="0.5"/>
  <!-- Code-like blocks -->
  <rect x="60" y="180" width="120" height="8" rx="1" fill="rgba(255,255,255,0.08)"/>
  <rect x="60" y="196" width="90" height="8" rx="1" fill="rgba(255,255,255,0.06)"/>
  <rect x="60" y="212" width="140" height="8" rx="1" fill="rgba(255,255,255,0.08)"/>
  <rect x="60" y="228" width="100" height="8" rx="1" fill="rgba(255,255,255,0.05)"/>
  <rect x="380" y="260" width="100" height="8" rx="1" fill="rgba(255,255,255,0.06)"/>
  <rect x="380" y="276" width="130" height="8" rx="1" fill="rgba(255,255,255,0.08)"/>
  <rect x="380" y="292" width="80" height="8" rx="1" fill="rgba(255,255,255,0.05)"/>
  <rect x="80" y="340" width="100" height="8" rx="1" fill="rgba(255,255,255,0.06)"/>
  <rect x="80" y="356" width="160" height="8" rx="1" fill="rgba(255,255,255,0.08)"/>
  <!-- Nodes -->
  <circle cx="120" cy="100" r="4" fill="rgba(13,92,92,0.6)"/>
  <circle cx="300" cy="160" r="3" fill="rgba(255,255,255,0.12)"/>
  <circle cx="480" cy="220" r="4" fill="rgba(13,92,92,0.5)"/>
  <circle cx="200" cy="320" r="3" fill="rgba(255,255,255,0.1)"/>
  <circle cx="400" cy="440" r="4" fill="rgba(13,92,92,0.4)"/>
  <circle cx="280" cy="560" r="3" fill="rgba(255,255,255,0.08)"/>
  <!-- Small chart-like bars -->
  <rect x="420" y="380" width="12" height="60" rx="2" fill="rgba(255,255,255,0.07)"/>
  <rect x="438" y="400" width="12" height="40" rx="2" fill="rgba(255,255,255,0.06)"/>
  <rect x="456" y="360" width="12" height="80" rx="2" fill="rgba(13,92,92,0.3)"/>
  <rect x="474" y="390" width="12" height="50" rx="2" fill="rgba(255,255,255,0.06)"/>
</svg>
