<svg xmlns="http://www.w3.org/2000/svg" viewBox="0 0 280 560" fill="none">
  <rect x="20" y="10" width="240" height="540" rx="32" fill="#1a1a1a" stroke="#333" stroke-width="2"/>
  <rect x="32" y="24" width="216" height="516" rx="24" fill="#1a1a1a"/>
  <rect x="32" y="24" width="216" height="32" rx="24" fill="rgba(255,255,255,0.04)"/>
  <circle cx="60" cy="40" r="4" fill="rgba(255,255,255,0.5)"/>
  <rect x="75" y="37" width="50" height="6" rx="2" fill="rgba(255,255,255,0.4)"/>
  <!-- Vault / secure -->
  <circle cx="140" cy="140" r="48" fill="rgba(255,255,255,0.06)" stroke="rgba(255,255,255,0.12)" stroke-width="2"/>
  <path d="M 120 140 L 130 150 L 132 148 L 140 156 L 160 136 L 158 134" fill="none" stroke="rgba(255,255,255,0.5)" stroke-width="3" stroke-linecap="round" stroke-linejoin="round"/>
  <rect x="48" y="208" width="184" height="56" rx="8" fill="rgba(255,255,255,0.04)"/>
  <rect x="64" y="224" width="80" height="8" rx="2" fill="rgba(255,255,255,0.2)"/>
  <rect x="64" y="244" width="120" height="8" rx="2" fill="rgba(255,255,255,0.08)"/>
  <rect x="48" y="276" width="88" height="64" rx="8" fill="rgba(255,255,255,0.04)"/>
  <rect x="144" y="276" width="88" height="64" rx="8" fill="rgba(255,255,255,0.04)"/>
  <rect x="64" y="292" width="56" height="6" rx="1" fill="rgba(255,255,255,0.25)"/>
  <rect x="160" y="292" width="56" height="6" rx="1" fill="rgba(255,255,255,0.25)"/>
  <rect x="48" y="354" width="184" height="48" rx="24" fill="rgba(13,92,92,0.4)"/>
</svg>
