<svg xmlns="http://www.w3.org/2000/svg" viewBox="0 0 280 560" fill="none">
  <rect x="20" y="10" width="240" height="540" rx="32" fill="#1a1a1a" stroke="#333" stroke-width="2"/>
  <rect x="32" y="24" width="216" height="516" rx="24" fill="#f5f0e8"/>
  <rect x="32" y="24" width="216" height="32" rx="24" fill="rgba(0,0,0,0.06)"/>
  <circle cx="60" cy="40" r="4" fill="#1a1a1a"/>
  <rect x="75" y="37" width="50" height="6" rx="2" fill="rgba(0,0,0,0.4)"/>
  <!-- Marketplace grid -->
  <rect x="48" y="68" width="56" height="56" rx="8" fill="#d4c4a8"/>
  <rect x="112" y="68" width="56" height="56" rx="8" fill="#c9b896"/>
  <rect x="176" y="68" width="56" height="56" rx="8" fill="#d4c4a8"/>
  <rect x="48" y="132" width="56" height="56" rx="8" fill="#c9b896"/>
  <rect x="112" y="132" width="56" height="56" rx="8" fill="#e8dcc8"/>
  <rect x="176" y="132" width="56" height="56" rx="8" fill="#d4c4a8"/>
  <rect x="64" y="200" width="152" height="8" rx="2" fill="rgba(0,0,0,0.2)"/>
  <rect x="64" y="216" width="100" height="8" rx="2" fill="rgba(0,0,0,0.15)"/>
  <rect x="48" y="244" width="184" height="100" rx="12" fill="white" stroke="rgba(0,0,0,0.06)" stroke-width="1"/>
  <rect x="64" y="260" width="80" height="8" rx="2" fill="rgba(0,0,0,0.25)"/>
  <rect x="64" y="280" width="152" height="6" rx="1" fill="rgba(0,0,0,0.12)"/>
  <rect x="64" y="296" width="100" height="6" rx="1" fill="rgba(0,0,0,0.1)"/>
  <rect x="48" y="358" width="88" height="48" rx="8" fill="#1a1a1a"/>
  <rect x="144" y="358" width="88" height="48" rx="8" fill="rgba(0,0,0,0.08)"/>
</svg>
