<svg xmlns="http://www.w3.org/2000/svg" viewBox="0 0 280 560" fill="none">
  <rect x="20" y="10" width="240" height="540" rx="32" fill="#1a1a1a" stroke="#333" stroke-width="2"/>
  <rect x="32" y="24" width="216" height="516" rx="24" fill="#0f1419"/>
  <rect x="32" y="24" width="216" height="32" rx="24" fill="rgba(255,255,255,0.05)"/>
  <circle cx="60" cy="40" r="4" fill="#0d5c5c"/>
  <rect x="75" y="37" width="60" height="6" rx="2" fill="rgba(255,255,255,0.5)"/>
  <!-- Dashboard -->
  <rect x="48" y="68" width="184" height="72" rx="8" fill="rgba(255,255,255,0.04)" stroke="rgba(255,255,255,0.06)" stroke-width="1"/>
  <rect x="64" y="84" width="60" height="8" rx="2" fill="rgba(255,255,255,0.3)"/>
  <rect x="64" y="108" width="100" height="18" rx="2" fill="rgba(13,92,92,0.4)"/>
  <path d="M 72 150 L 100 130 L 128 140 L 156 125 L 184 135 L 212 118 L 240 128" fill="none" stroke="rgba(13,92,92,0.6)" stroke-width="2" stroke-linecap="round"/>
  <path d="M 72 165 L 100 155 L 128 160 L 156 150 L 184 158" fill="none" stroke="rgba(255,255,255,0.15)" stroke-width="1.5" stroke-linecap="round"/>
  <rect x="48" y="192" width="88" height="64" rx="8" fill="rgba(255,255,255,0.03)"/>
  <rect x="144" y="192" width="88" height="64" rx="8" fill="rgba(255,255,255,0.03)"/>
  <rect x="64" y="208" width="56" height="6" rx="1" fill="rgba(255,255,255,0.2)"/>
  <rect x="64" y="232" width="40" height="24" rx="2" fill="rgba(13,92,92,0.3)"/>
  <rect x="160" y="208" width="56" height="6" rx="1" fill="rgba(255,255,255,0.2)"/>
  <rect x="160" y="232" width="40" height="24" rx="2" fill="rgba(255,255,255,0.08)"/>
  <rect x="48" y="268" width="184" height="36" rx="6" fill="rgba(255,255,255,0.06)"/>
  <rect x="48" y="316" width="184" height="1" fill="rgba(255,255,255,0.06)"/>
  <rect x="48" y="328" width="80" height="8" rx="2" fill="rgba(255,255,255,0.15)"/>
  <rect x="48" y="348" width="120" height="8" rx="2" fill="rgba(255,255,255,0.08)"/>
</svg>
