<svg xmlns="http://www.w3.org/2000/svg" viewBox="0 0 280 560" fill="none">
  <rect x="20" y="10" width="240" height="540" rx="32" fill="#1a1a1a" stroke="#333" stroke-width="2"/>
  <rect x="32" y="24" width="216" height="516" rx="24" fill="#1e293b"/>
  <rect x="32" y="24" width="216" height="32" rx="24" fill="rgba(0,0,0,0.2)"/>
  <circle cx="60" cy="40" r="4" fill="#0d5c5c"/>
  <rect x="75" y="37" width="65" height="6" rx="2" fill="rgba(255,255,255,0.5)"/>
  <!-- Collaboration / avatars -->
  <circle cx="90" cy="90" r="28" fill="#475569"/>
  <circle cx="90" cy="82" r="10" fill="#64748b"/>
  <circle cx="190" cy="90" r="28" fill="#475569"/>
  <circle cx="190" cy="82" r="10" fill="#64748b"/>
  <circle cx="140" cy="130" r="22" fill="#334155"/>
  <rect x="48" y="168" width="184" height="100" rx="12" fill="rgba(255,255,255,0.05)"/>
  <circle cx="80" cy="198" r="16" fill="#475569"/>
  <circle cx="120" cy="198" r="16" fill="#64748b"/>
  <circle cx="160" cy="198" r="16" fill="#475569"/>
  <rect x="64" y="228" width="152" height="8" rx="2" fill="rgba(255,255,255,0.2)"/>
  <rect x="64" y="244" width="100" height="6" rx="1" fill="rgba(255,255,255,0.12)"/>
  <rect x="48" y="282" width="88" height="72" rx="10" fill="rgba(255,255,255,0.06)"/>
  <rect x="144" y="282" width="88" height="72" rx="10" fill="rgba(255,255,255,0.06)"/>
  <rect x="64" y="298" width="56" height="6" rx="1" fill="rgba(255,255,255,0.2)"/>
  <rect x="160" y="298" width="56" height="6" rx="1" fill="rgba(255,255,255,0.2)"/>
  <rect x="48" y="368" width="184" height="48" rx="24" fill="#0d5c5c"/>
</svg>
