<svg xmlns="http://www.w3.org/2000/svg" viewBox="0 0 280 560" fill="none">
  <rect x="20" y="10" width="240" height="540" rx="32" fill="#1a1a1a" stroke="#333" stroke-width="2"/>
  <rect x="32" y="24" width="216" height="516" rx="24" fill="#f8fafc"/>
  <rect x="32" y="24" width="216" height="32" rx="24" fill="rgba(255,255,255,0.8)"/>
  <circle cx="60" cy="40" r="4" fill="#0d5c5c"/>
  <rect x="75" y="37" width="55" height="6" rx="2" fill="rgba(0,0,0,0.4)"/>
  <!-- Health app -->
  <rect x="48" y="68" width="184" height="44" rx="12" fill="white" stroke="rgba(0,0,0,0.06)" stroke-width="1"/>
  <circle cx="72" cy="90" r="12" fill="#0d5c5c" opacity="0.2"/>
  <path d="M 72 84 L 76 88 L 84 80" fill="none" stroke="#0d5c5c" stroke-width="2" stroke-linecap="round" stroke-linejoin="round"/>
  <rect x="96" y="82" width="80" height="8" rx="2" fill="rgba(0,0,0,0.4)"/>
  <rect x="96" y="96" width="120" height="6" rx="1" fill="rgba(0,0,0,0.2)"/>
  <rect x="48" y="124" width="184" height="70" rx="10" fill="white"/>
  <path d="M 64 160 Q 100 140 136 158 T 208 150" fill="none" stroke="#0d5c5c" stroke-width="2" stroke-linecap="round"/>
  <rect x="64" y="178" width="60" height="6" rx="1" fill="rgba(0,0,0,0.2)"/>
  <rect x="160" y="178" width="60" height="6" rx="1" fill="rgba(0,0,0,0.15)"/>
  <rect x="48" y="208" width="88" height="52" rx="8" fill="rgba(13,92,92,0.08)"/>
  <rect x="144" y="208" width="88" height="52" rx="8" fill="rgba(0,0,0,0.04)"/>
  <rect x="64" y="222" width="56" height="6" rx="1" fill="rgba(0,0,0,0.3)"/>
  <rect x="64" y="238" width="40" height="14" rx="2" fill="#0d5c5c" opacity="0.3"/>
  <rect x="160" y="222" width="56" height="6" rx="1" fill="rgba(0,0,0,0.25)"/>
  <rect x="160" y="238" width="40" height="14" rx="2" fill="rgba(0,0,0,0.08)"/>
  <rect x="48" y="272" width="184" height="48" rx="24" fill="#0d5c5c"/>
</svg>
